<?xml version="1.0" encoding="UTF-8"?>
<svg version="1.1" xmlns="http://www.w3.org/2000/svg" width="119" height="107">
<path d="M0 0 C4.06153166 -0.23272688 8.12135243 -0.37454311 12.1875 -0.5 C13.33798828 -0.56703125 14.48847656 -0.6340625 15.67382812 -0.703125 C24.00578805 -0.89632987 24.00578805 -0.89632987 26.79785156 1.62084961 C28.09698327 3.69499243 29.06265706 5.74212854 30 8 C30.60585938 8.97066406 31.21171875 9.94132812 31.8359375 10.94140625 C32.34382813 11.80636719 32.85171875 12.67132813 33.375 13.5625 C33.89835937 14.43003906 34.42171875 15.29757813 34.9609375 16.19140625 C36.34948177 19.94465186 35.98287098 22.13600936 35 26 C33.22265625 29.38671875 33.22265625 29.38671875 31.0625 32.6875 C28.8682668 36.07641553 26.76301747 39.36985563 25 43 C4.5227989 45.54314415 4.5227989 45.54314415 -1.0859375 41.49414062 C-4.32360018 37.76626846 -6.43450225 33.4971367 -8.23583984 28.92285156 C-8.98472306 26.938038 -8.98472306 26.938038 -10.10644531 24.90551758 C-11.37642646 22.19726543 -10.90094337 20.82492056 -10 18 C-8.94193722 15.98425476 -7.81059429 14.00597418 -6.625 12.0625 C-4.2295775 8.11260119 -2.01926554 4.15621833 0 0 Z M2 5 C-4.88353866 13.98064776 -4.88353866 13.98064776 -6.40234375 24.55859375 C-4.82558124 27.66175535 -3.15916796 30.27284976 -1 33 C-0.47277344 33.928125 0.05445313 34.85625 0.59765625 35.8125 C4.3987672 39.2736742 8.30941743 38.53738646 13.25 38.3125 C14.18585937 38.28994141 15.12171875 38.26738281 16.0859375 38.24414062 C18.39225674 38.18530595 20.69530838 38.10317146 23 38 C24.59639771 35.49566988 26.14999468 32.97762888 27.6875 30.4375 C28.14189453 29.73302734 28.59628906 29.02855469 29.06445312 28.30273438 C30.31329896 26.2019627 31.31123269 24.34687986 32 22 C31.02081937 18.26210065 31.02081937 18.26210065 29 15 C28.57074219 13.57880859 28.57074219 13.57880859 28.1328125 12.12890625 C26.81499294 8.77306341 25.91387551 7.198415 23 5 C16.12488117 3.69436081 8.9282912 4.40002807 2 5 Z " fill="#F2DAB4" transform="translate(28,51)"/>
<path d="M0 0 C19.38263316 -1.84199196 19.38263316 -1.84199196 24.76123047 2.21142578 C28.0901998 6.20445162 30.19790978 10.75476727 31.9206543 15.63525391 C32.62825521 17.77013735 32.62825521 17.77013735 34.12109375 20.16113281 C34.9914874 24.29550263 32.5860182 27.15835364 30.44921875 30.61035156 C30.03607422 31.30902344 29.62292969 32.00769531 29.19726562 32.72753906 C28.38929784 34.08913818 27.56379414 35.44050923 26.71972656 36.7800293 C25.49424289 38.73716695 25.49424289 38.73716695 24.484375 41.58300781 C22.170659 44.12173636 21.28413045 43.98119384 17.92578125 44.16894531 C16.03738564 44.1543169 14.14905079 44.112888 12.26171875 44.04785156 C10.84246094 44.03915039 10.84246094 44.03915039 9.39453125 44.03027344 C-0.15228684 43.86266778 -0.15228684 43.86266778 -3.36328125 41.61035156 C-5.44963112 38.82227141 -7.09397605 35.86223853 -8.73828125 32.79785156 C-9.20105469 31.99025391 -9.66382813 31.18265625 -10.140625 30.35058594 C-13.44026115 24.33736842 -13.44026115 24.33736842 -13.09399414 21.06713867 C-12.43127118 18.83894583 -11.69321495 16.98196958 -10.5859375 14.94628906 C-10.06290039 13.975625 -10.06290039 13.975625 -9.52929688 12.98535156 C-9.16513672 12.32535156 -8.80097656 11.66535156 -8.42578125 10.98535156 C-8.06548828 10.31761719 -7.70519531 9.64988281 -7.33398438 8.96191406 C-2.87017093 0.74126315 -2.87017093 0.74126315 0 0 Z M-3.45849609 9.02246094 C-4.98096137 11.81684951 -6.2245968 14.64002178 -7.36328125 17.61035156 C-7.82992188 18.40441406 -8.2965625 19.19847656 -8.77734375 20.01660156 C-9.90696166 25.01704349 -6.87127483 28.93124978 -4.36035156 33.11425781 C-1.61515466 37.01658179 0.56828357 39.03858896 5.328125 39.93457031 C11.13775158 40.39271959 17.05968072 40.27564269 22.0546875 37.04785156 C23.681076 34.9741017 24.63624964 33.04302749 25.63671875 30.61035156 C26.06082031 29.91683594 26.48492187 29.22332031 26.921875 28.50878906 C28.84883884 25.299248 29.74267898 23.44037339 29.26171875 19.67285156 C27.01450479 15.43771756 24.38609889 11.53270095 21.63671875 7.61035156 C20.97671875 6.62035156 20.31671875 5.63035156 19.63671875 4.61035156 C12.0439633 2.35885935 1.30765377 1.93191229 -3.45849609 9.02246094 Z " fill="#EFD2A5" transform="translate(30.36328125,6.3896484375)"/>
<path d="M0 0 C0.91072266 -0.020625 1.82144531 -0.04125 2.75976562 -0.0625 C3.63439453 -0.06765625 4.50902344 -0.0728125 5.41015625 -0.078125 C6.60523804 -0.09214355 6.60523804 -0.09214355 7.82446289 -0.10644531 C10.51113763 0.34676614 11.25745051 1.13757169 12.9375 3.25 C14.87024088 6.0926102 16.54487601 9.07912921 18.25 12.0625 C18.73017578 12.85720703 19.21035156 13.65191406 19.70507812 14.47070312 C23.06050147 20.35852145 23.06050147 20.35852145 22.51171875 24.3359375 C21.99222656 25.29757813 21.47273438 26.25921875 20.9375 27.25 C20.60919189 27.86029053 20.28088379 28.47058105 19.94262695 29.09936523 C18.82271482 31.11998431 17.64155582 33.09100284 16.4375 35.0625 C16.03402344 35.74248047 15.63054687 36.42246094 15.21484375 37.12304688 C12.19498884 42.12125558 12.19498884 42.12125558 9.9375 43.25 C-9.46648946 45.62152781 -9.46648946 45.62152781 -15.96484375 41.3359375 C-17.75882587 38.70801811 -18.91397918 36.21219218 -20.0625 33.25 C-21.04932791 31.6584237 -22.04861227 30.07447645 -23.0625 28.5 C-24.66552708 25.87504316 -25.07338667 24.57297128 -24.96875 21.46875 C-23.80392392 17.33160909 -21.85245689 14.10863175 -19.5625 10.5 C-18.73924391 9.17208537 -17.9163121 7.84396963 -17.09375 6.515625 C-16.4234375 5.43796875 -15.753125 4.3603125 -15.0625 3.25 C-14.7325 2.59 -14.4025 1.93 -14.0625 1.25 C-9.54231552 -0.31259444 -4.72357809 0.02685759 0 0 Z M-12.0625 5.25 C-14.0734375 8.4984375 -14.0734375 8.4984375 -16.125 11.8125 C-16.55176025 12.47967041 -16.97852051 13.14684082 -17.41821289 13.83422852 C-19.36507326 17.11125979 -20.06588249 18.90686483 -20.02734375 22.81640625 C-18.98583015 26.52284534 -17.57600502 29.3489283 -15.5625 32.625 C-14.9334375 33.66398437 -14.304375 34.70296875 -13.65625 35.7734375 C-12.28202652 38.1011276 -12.28202652 38.1011276 -11.0625 39.25 C-9.5737814 39.33669432 -8.081055 39.35703494 -6.58984375 39.34765625 C-5.24116211 39.34282227 -5.24116211 39.34282227 -3.86523438 39.33789062 C-2.91970703 39.32951172 -1.97417969 39.32113281 -1 39.3125 C-0.05060547 39.30798828 0.89878906 39.30347656 1.87695312 39.29882812 C4.23053065 39.2870011 6.58398477 39.27052025 8.9375 39.25 C10.50214388 36.69921084 12.0385896 34.13746037 13.5625 31.5625 C14.23152344 30.4806543 14.23152344 30.4806543 14.9140625 29.37695312 C17.45276489 25.27688388 17.45276489 25.27688388 17.4375 20.65625 C16.9425 19.8621875 16.4475 19.068125 15.9375 18.25 C15.36773437 17.15042969 14.79796875 16.05085938 14.2109375 14.91796875 C13.58445313 13.76941406 12.95796875 12.62085938 12.3125 11.4375 C11.19875 9.395625 10.085 7.35375 8.9375 5.25 C2.0075 5.25 -4.9225 5.25 -12.0625 5.25 Z " fill="#F1D8B2" transform="translate(81.0625,28.75)"/>
<path d="M0 0 C21.37368778 -2.69919143 21.37368778 -2.69919143 27.13330078 1.58789062 C30.45830914 5.58137325 32.56194685 10.14655691 34.28393555 15.02490234 C34.99153646 17.15978579 34.99153646 17.15978579 36.484375 19.55078125 C37.35476865 23.68515107 34.94929945 26.54800208 32.8125 30 C32.39935547 30.69867188 31.98621094 31.39734375 31.56054688 32.1171875 C30.75254162 33.47884978 29.92663297 34.83007329 29.08178711 36.16918945 C27.85558367 38.12621618 27.85558367 38.12621618 26.8671875 40.98046875 C24.49527418 43.54590638 23.53693006 43.35214342 20.11328125 43.48828125 C18.17908541 43.45504764 16.24520331 43.39542126 14.3125 43.3125 C13.32443359 43.28994141 12.33636719 43.26738281 11.31835938 43.24414062 C8.87738441 43.18517988 6.43945132 43.10295048 4 43 C4 42.67 4 42.34 4 42 C13.9 41.505 13.9 41.505 24 41 C24.33 40.34 24.66 39.68 25 39 C17.41 39 9.82 39 2 39 C2.33 38.34 2.66 37.68 3 37 C4.30195312 37.10441406 5.60390625 37.20882812 6.9453125 37.31640625 C16.17582486 38.22707307 16.17582486 38.22707307 24.4921875 35.20703125 C26.01359383 32.85397534 27.03440331 30.62521599 28 28 C28.66 26.948125 29.32 25.89625 30 24.8125 C31.2353933 22.04461127 31.2353933 22.04461127 30.5625 19.1875 C28.7754204 15.54185763 26.65575143 12.28259619 24.33984375 8.953125 C23 7 23 7 22 5 C15.4 5 8.8 5 2 5 C2 4.34 2 3.68 2 3 C9.26 3 16.52 3 24 3 C24 2.34 24 1.68 24 1 C16.08 1 8.16 1 0 1 C0 0.67 0 0.34 0 0 Z " fill="#EBCEA4" transform="translate(28,7)"/>
<path d="M0 0 C0.88042969 -0.00128906 1.76085937 -0.00257812 2.66796875 -0.00390625 C3.57933594 -0.00003906 4.49070312 0.00382812 5.4296875 0.0078125 C6.34878906 0.00394531 7.26789063 0.00007813 8.21484375 -0.00390625 C9.09269531 -0.00261719 9.97054687 -0.00132813 10.875 0 C11.67695801 0.00112793 12.47891602 0.00225586 13.30517578 0.00341797 C15.3046875 0.1328125 15.3046875 0.1328125 17.3046875 1.1328125 C16.9746875 1.7928125 16.6446875 2.4528125 16.3046875 3.1328125 C8.3846875 2.8028125 0.4646875 2.4728125 -7.6953125 2.1328125 C-7.6953125 2.7928125 -7.6953125 3.4528125 -7.6953125 4.1328125 C-0.4353125 4.1328125 6.8246875 4.1328125 14.3046875 4.1328125 C14.3046875 4.4628125 14.3046875 4.7928125 14.3046875 5.1328125 C7.3746875 5.1328125 0.4446875 5.1328125 -6.6953125 5.1328125 C-7.3553125 7.1128125 -8.0153125 9.0928125 -8.6953125 11.1328125 C-9.54585121 12.47510811 -10.43934234 13.79162658 -11.3828125 15.0703125 C-13.30440113 18.06071374 -13.69277498 18.98817402 -13.7578125 22.6953125 C-12.88882298 25.50674918 -12.03490732 27.45807077 -10.5703125 29.9453125 C-9.9515625 30.9971875 -9.3328125 32.0490625 -8.6953125 33.1328125 C-9.0253125 33.7928125 -9.3553125 34.4528125 -9.6953125 35.1328125 C-10.3553125 34.8028125 -11.0153125 34.4728125 -11.6953125 34.1328125 C-12.0253125 34.7928125 -12.3553125 35.4528125 -12.6953125 36.1328125 C-13.90338228 34.27099923 -15.08606547 32.39269715 -16.2578125 30.5078125 C-17.24974609 28.94160156 -17.24974609 28.94160156 -18.26171875 27.34375 C-19.97949932 23.49629598 -19.98033329 22.1138573 -18.6953125 18.1328125 C-17.34965097 15.445758 -15.80464277 12.91887785 -14.1953125 10.3828125 C-13.37205641 9.05489787 -12.5491246 7.72678213 -11.7265625 6.3984375 C-11.05625 5.32078125 -10.3859375 4.243125 -9.6953125 3.1328125 C-9.3653125 2.4728125 -9.0353125 1.8128125 -8.6953125 1.1328125 C-5.78966772 0.11988693 -3.05812488 0.0042891 0 0 Z " fill="#F4DFBE" transform="translate(75.6953125,28.8671875)"/>
<path d="M0 0 C4.06153166 -0.23272688 8.12135243 -0.37454311 12.1875 -0.5 C13.33798828 -0.56703125 14.48847656 -0.6340625 15.67382812 -0.703125 C23.98389127 -0.89582212 23.98389127 -0.89582212 26.94067383 1.7109375 C28.321374 3.80973629 29.3127077 5.58399282 30 8 C29.3125 11 29.3125 11 28 13 C24.99530649 10.40503742 24.63141204 9.0785301 23 5 C16.07 5 9.14 5 2 5 C1.34 6.65 0.68 8.3 0 10 C-0.97236487 11.6829392 -1.96564444 13.35443434 -3 15 C-4.125 13.3125 -4.125 13.3125 -5 11 C-3.8754774 7.11528558 -1.80579069 3.61158139 0 0 Z " fill="#EFD7AF" transform="translate(28,51)"/>
<path d="M0 0 C1 3 1 3 0.1953125 4.83984375 C-0.15789063 5.53207031 -0.51109375 6.22429687 -0.875 6.9375 C-2.15697119 10.4090326 -2.17761322 11.59012335 -0.6796875 15.046875 C0.58195177 17.10023122 1.89591136 19.12256936 3.265625 21.10546875 C5 24 5 24 6 30 C12.6 30 19.2 30 26 30 C26 30.33 26 30.66 26 31 C19.07 31 12.14 31 5 31 C5 30.34 5 29.68 5 29 C4.01 29 3.02 29 2 29 C0.4609776 26.44696285 -1.05595193 23.88460065 -2.5625 21.3125 C-3.00013672 20.59126953 -3.43777344 19.87003906 -3.88867188 19.12695312 C-7.02613431 13.71668325 -7.02613431 13.71668325 -6.8984375 10.21484375 C-3.45575221 1.72787611 -3.45575221 1.72787611 0 0 Z " fill="#F0D7AE" transform="translate(24,61)"/>
<path d="M0 0 C0.66 0.33 1.32 0.66 2 1 C3.7404417 1.08449628 5.48409722 1.10723024 7.2265625 1.09765625 C8.7734375 1.09282227 8.7734375 1.09282227 10.3515625 1.08789062 C11.43179688 1.07951172 12.51203125 1.07113281 13.625 1.0625 C14.71296875 1.05798828 15.8009375 1.05347656 16.921875 1.04882812 C19.61463789 1.03701776 22.30729188 1.02054778 25 1 C25.042721 2.66611905 25.04063832 4.33382885 25 6 C24 7 24 7 21.68334961 7.11352539 C20.68311768 7.10828857 19.68288574 7.10305176 18.65234375 7.09765625 C17.57275391 7.09443359 16.49316406 7.09121094 15.38085938 7.08789062 C14.24455078 7.07951172 13.10824219 7.07113281 11.9375 7.0625 C10.79732422 7.05798828 9.65714844 7.05347656 8.48242188 7.04882812 C5.65489649 7.03699747 2.8274736 7.0205141 0 7 C-0.66 5.68 -1.32 4.36 -2 3 C-1.34 3 -0.68 3 0 3 C0 2.01 0 1.02 0 0 Z " fill="#F4E1C0" transform="translate(29,87)"/>
<path d="M0 0 C4.04013515 -0.29146369 8.07757429 -0.46829657 12.125 -0.625 C13.83816406 -0.75068359 13.83816406 -0.75068359 15.5859375 -0.87890625 C18.99276558 -0.97794195 21.71966548 -0.94319478 25 0 C27.92439928 2.95323692 29.72363202 6.04661166 31 10 C30.67 10.66 30.34 11.32 30 12 C29.34 11.67 28.68 11.34 28 11 C28.66 12.65 29.32 14.3 30 16 C26.11603425 12.53217344 24.80248511 9.90434895 22 5 C15.4 5 8.8 5 2 5 C2 4.34 2 3.68 2 3 C9.26 3 16.52 3 24 3 C24 2.34 24 1.68 24 1 C16.08 1 8.16 1 0 1 C0 0.67 0 0.34 0 0 Z " fill="#F8E4C4" transform="translate(28,7)"/>
<path d="M0 0 C3.93736123 -0.08696177 7.87447628 -0.14037835 11.8125 -0.1875 C13.49182617 -0.22520508 13.49182617 -0.22520508 15.20507812 -0.26367188 C16.27822266 -0.27333984 17.35136719 -0.28300781 18.45703125 -0.29296875 C19.9416687 -0.31653442 19.9416687 -0.31653442 21.45629883 -0.34057617 C24.41581275 0.05567317 25.20004418 0.6843563 27 3 C32.08283085 9.67470644 32.08283085 9.67470644 31.8125 14 C31.544375 14.66 31.27625 15.32 31 16 C28.95608352 14.26123161 28.04375603 13.12859754 27.16796875 10.5546875 C25.88121683 7.03790736 24.94164687 5.3908886 22 3 C14.85833936 1.35843685 7.28204403 1.74685612 0 2 C0 1.34 0 0.68 0 0 Z " fill="#E5C69B" transform="translate(68,31)"/>
<path d="M0 0 C4.875 4.625 4.875 4.625 6 8 C13.59 8 21.18 8 29 8 C28.67 8.99 28.34 9.98 28 11 C20.08 11 12.16 11 4 11 C0 2 0 2 0 0 Z " fill="#EACD9F" transform="translate(24,38)"/>
<path d="M0 0 C0.33 0.66 0.66 1.32 1 2 C1.66 2 2.32 2 3 2 C2.38991336 4.01797888 1.71143088 6.01548229 1 8 C0.7009375 8.886875 0.401875 9.77375 0.09375 10.6875 C-2 13 -2 13 -4.21166992 13.3996582 C-7.05219021 13.49376324 -9.84810115 13.43432239 -12.6875 13.3125 C-13.67556641 13.28994141 -14.66363281 13.26738281 -15.68164062 13.24414062 C-18.12261559 13.18517988 -20.56054868 13.10295048 -23 13 C-23 12.67 -23 12.34 -23 12 C-16.4 11.67 -9.8 11.34 -3 11 C-2.67 10.34 -2.34 9.68 -2 9 C-9.59 9 -17.18 9 -25 9 C-24.67 8.34 -24.34 7.68 -24 7 C-22.02966797 7.12181641 -22.02966797 7.12181641 -20.01953125 7.24609375 C-18.2839239 7.31176538 -16.5482411 7.37546403 -14.8125 7.4375 C-13.51602539 7.52547852 -13.51602539 7.52547852 -12.19335938 7.61523438 C-7.3021263 7.83067799 -7.3021263 7.83067799 -3.27099609 5.41064453 C-1.69336232 3.28544487 -1.69336232 3.28544487 0 0 Z " fill="#F8EBD2" transform="translate(55,37)"/>
<path d="M0 0 C3.13887471 1.56943735 3.77079232 3.80406003 5 7 C4.1875 9.875 4.1875 9.875 3 12 C-0.00469351 9.40503742 -0.36858796 8.0785301 -2 4 C-8.93 4 -15.86 4 -23 4 C-23 3.67 -23 3.34 -23 3 C-15.41 3 -7.82 3 0 3 C0 2.01 0 1.02 0 0 Z " fill="#F7E9D1" transform="translate(53,52)"/>
<path d="M0 0 C3.60348808 1.20116269 3.9058468 2.01841281 5.6875 5.25 C6.12449219 6.01828125 6.56148437 6.7865625 7.01171875 7.578125 C8.09669092 10.23695009 8.18655326 12.15632325 8 15 C7.01 15.33 6.02 15.66 5 16 C4.67 13.69 4.34 11.38 4 9 C3.34 9 2.68 9 2 9 C-0.29013653 5.5647952 -0.17842973 4.014669 0 0 Z " fill="#EDCFA1" transform="translate(56,60)"/>
<path d="M0 0 C5.01791571 2.36957131 6.69517696 5.1244128 9 10 C8.67 10.66 8.34 11.32 8 12 C6.68 10.68 5.36 9.36 4 8 C4.515625 8.94875 5.03125 9.8975 5.5625 10.875 C6.036875 11.90625 6.51125 12.9375 7 14 C6.67 14.66 6.34 15.32 6 16 C4.98696238 14.27843904 3.99005152 12.54738194 3 10.8125 C2.443125 9.84957031 1.88625 8.88664062 1.3125 7.89453125 C-0.02216758 4.95111257 -0.27915461 3.18119943 0 0 Z " fill="#F4E0BF" transform="translate(21,32)"/>
<path d="M0 0 C7.92 0.33 15.84 0.66 24 1 C24 1.33 24 1.66 24 2 C17.07 2 10.14 2 3 2 C2.67 3.32 2.34 4.64 2 6 C-0.0625 7.25 -0.0625 7.25 -2 8 C-1.34 5.36 -0.68 2.72 0 0 Z " fill="#F3DFB7" transform="translate(66,32)"/>
<path d="M0 0 C0.66 0.33 1.32 0.66 2 1 C1.34097701 4.57040303 -0.16229158 7.17732255 -2.0625 10.25 C-2.61035156 11.14203125 -3.15820312 12.0340625 -3.72265625 12.953125 C-4.14417969 13.62859375 -4.56570312 14.3040625 -5 15 C-6.34611285 10.96166145 -5.43538136 8.9643866 -4 5 C-1.875 2.0625 -1.875 2.0625 0 0 Z " fill="#EDCDA1" transform="translate(28,8)"/>
<path d="M0 0 C2.375 0.625 2.375 0.625 5 2 C6.3125 5.125 6.3125 5.125 7 8 C6.34 8 5.68 8 5 8 C4.87625 8.969375 4.7525 9.93875 4.625 10.9375 C4.41875 11.948125 4.2125 12.95875 4 14 C3.01 14.495 3.01 14.495 2 15 C2.3403125 13.7934375 2.3403125 13.7934375 2.6875 12.5625 C3.10163423 7.84136982 1.71114265 4.35036268 0 0 Z " fill="#F0D6B2" transform="translate(56,18)"/>
<path d="M0 0 C1.9375 0.75 1.9375 0.75 4 2 C4.33 3.32 4.66 4.64 5 6 C11.6 6 18.2 6 25 6 C25 6.33 25 6.66 25 7 C18.07 7 11.14 7 4 7 C4 6.34 4 5.68 4 5 C3.01 5 2.02 5 1 5 C0.67 3.35 0.34 1.7 0 0 Z " fill="#E3C08D" transform="translate(25,85)"/>
<path d="M0 0 C1.32 0.33 2.64 0.66 4 1 C4.33 3.31 4.66 5.62 5 8 C2 7 2 7 0 4 C0 2.68 0 1.36 0 0 Z " fill="#E8D2A6" transform="translate(64,63)"/>
<path d="M0 0 C1.58706842 4.1077065 2.10191901 5.59232396 1 10 C-0.65 7.03 -2.3 4.06 -4 1 C-2 0 -2 0 0 0 Z " fill="#EACA9C" transform="translate(94,32)"/>
<path d="M0 0 C0.99 0 1.98 0 3 0 C3 1.98 3 3.96 3 6 C1.68 5.67 0.36 5.34 -1 5 C-0.67 3.35 -0.34 1.7 0 0 Z " fill="#E9CA99" transform="translate(18,69)"/>
<path d="M0 0 C2.5 2.3125 2.5 2.3125 5 5 C5 5.99 5 6.98 5 8 C4.34 8 3.68 8 3 8 C0 2.25 0 2.25 0 0 Z " fill="#E2BB8C" transform="translate(24,38)"/>
<path d="M0 0 C1 3 1 3 0 6 C-0.99 6 -1.98 6 -3 6 C-2.625 3.5625 -2.625 3.5625 -2 1 C-1.34 0.67 -0.68 0.34 0 0 Z " fill="#E9CD9E" transform="translate(20,24)"/>
</svg>
